<svg xmlns="http://www.w3.org/2000/svg" class="svg-global"><symbol id="iconmonstr-dribbble-1" viewBox="0 0 24 24"><path d="M12 0C5.372 0 0 5.373 0 12s5.372 12 12 12 12-5.373 12-12S18.628 0 12 0zm9.885 11.441c-2.575-.422-4.943-.445-7.103-.073a42.153 42.153 0 0 0-.767-1.68c2.31-1 4.165-2.358 5.548-4.082a9.863 9.863 0 0 1 2.322 5.835zm-3.842-7.282c-1.205 1.554-2.868 2.783-4.986 3.68a46.287 46.287 0 0 0-3.488-5.438A9.894 9.894 0 0 1 12 2.087c2.275 0 4.368.779 6.043 2.072zM7.527 3.166a44.59 44.59 0 0 1 3.537 5.381c-2.43.715-5.331 1.082-8.684 1.105a9.931 9.931 0 0 1 5.147-6.486zM2.087 12l.013-.256c3.849-.005 7.169-.448 9.95-1.322.233.475.456.952.67 1.432-3.38 1.057-6.165 3.222-8.337 6.48A9.865 9.865 0 0 1 2.087 12zm3.829 7.81c1.969-3.088 4.482-5.098 7.598-6.027a39.137 39.137 0 0 1 2.043 7.46c-3.349 1.291-6.953.666-9.641-1.433zm11.586.43a41.098 41.098 0 0 0-1.92-6.897c1.876-.265 3.94-.196 6.199.196a9.923 9.923 0 0 1-4.279 6.701z"/></symbol><symbol id="iconmonstr-email-1" viewBox="0 0 24 24"><path d="M12 12.713L.015 3h23.971L12 12.713zm-5.425-1.822L0 5.562v12.501l6.575-7.172zm10.85 0L24 18.063V5.562l-6.575 5.329zm-1.557 1.261L12 15.287l-3.868-3.135L.022 21h23.956l-8.11-8.848z"/></symbol><symbol id="iconmonstr-email-2" viewBox="0 0 24 24"><path d="M0 3v18h24V3H0zm6.623 7.929L2 16.641V7.183l4.623 3.746zM2.482 5h19.035L12 12.713 2.482 5zm5.694 7.188L12 15.287l3.83-3.104L21.442 19H2.663l5.513-6.812zm9.208-1.264L22 7.183v9.348l-4.616-5.607z"/></symbol><symbol id="iconmonstr-github-1" viewBox="0 0 24 24"><path d="M12 0C5.374 0 0 5.373 0 12c0 5.302 3.438 9.8 8.207 11.387.599.111.793-.261.793-.577v-2.234c-3.338.726-4.033-1.416-4.033-1.416-.546-1.387-1.333-1.756-1.333-1.756-1.089-.745.083-.729.083-.729 1.205.084 1.839 1.237 1.839 1.237 1.07 1.834 2.807 1.304 3.492.997.107-.775.418-1.305.762-1.604-2.665-.305-5.467-1.334-5.467-5.931 0-1.311.469-2.381 1.236-3.221-.124-.303-.535-1.524.117-3.176 0 0 1.008-.322 3.301 1.23A11.509 11.509 0 0 1 12 5.803c1.02.005 2.047.138 3.006.404 2.291-1.552 3.297-1.23 3.297-1.23.653 1.653.242 2.874.118 3.176.77.84 1.235 1.911 1.235 3.221 0 4.609-2.807 5.624-5.479 5.921.43.372.823 1.102.823 2.222v3.293c0 .319.192.694.801.576C20.566 21.797 24 17.3 24 12c0-6.627-5.373-12-12-12z"/></symbol><symbol id="iconmonstr-shopping-cart-3" viewBox="0 0 24 24"><path d="M10 19.5a1.5 1.5 0 1 1-3 0 1.5 1.5 0 0 1 3 0zm3.5-1.5a1.5 1.5 0 1 0 0 3 1.5 1.5 0 0 0 0-3zm1.336-5l1.977-7H0l2.938 7h11.898zm4.969-10l-3.432 12H3.776l.839 2h13.239l3.474-12h1.929L24 3h-4.195z"/></symbol><symbol id="iconmonstr-twitter-1" viewBox="0 0 24 24"><path d="M24 4.557a9.83 9.83 0 0 1-2.828.775 4.932 4.932 0 0 0 2.165-2.724 9.864 9.864 0 0 1-3.127 1.195 4.916 4.916 0 0 0-3.594-1.555c-3.179 0-5.515 2.966-4.797 6.045A13.978 13.978 0 0 1 1.671 3.149a4.93 4.93 0 0 0 1.523 6.574 4.903 4.903 0 0 1-2.229-.616c-.054 2.281 1.581 4.415 3.949 4.89a4.935 4.935 0 0 1-2.224.084 4.928 4.928 0 0 0 4.6 3.419A9.9 9.9 0 0 1 0 19.54a13.94 13.94 0 0 0 7.548 2.212c9.142 0 14.307-7.721 13.995-14.646A10.025 10.025 0 0 0 24 4.557z"/></symbol><symbol id="wesley-luyten-logo" viewBox="0 0 126 113"><title>wesley-luyten-logo</title><path d="M7 10A5 5 0 1 0 7 0a5 5 0 0 0 0 10zm20 58a5 5 0 1 0 0-10 5 5 0 0 0 0 10zm19-15a5 5 0 1 0 0-10 5 5 0 0 0 0 10zm17-14a5 5 0 1 0 0-10 5 5 0 0 0 0 10zM27 52a4 4 0 1 0 0-8 4 4 0 0 0 0 8zm0-16a3 3 0 1 0 0-6 3 3 0 0 0 0 6zm0-15a2 2 0 1 0 0-4 2 2 0 0 0 0 4zM7 113a6 6 0 1 0 0-12 6 6 0 0 0 0 12zm20-14a6 6 0 1 0 0-12 6 6 0 0 0 0 12zm19-15a6 6 0 1 0 0-12 6 6 0 0 0 0 12zm17-15a6 6 0 1 0 0-12 6 6 0 0 0 0 12zM7 25a6 6 0 1 0 0-12 6 6 0 0 0 0 12zm0 15a7 7 0 1 0 0-14 7 7 0 0 0 0 14zm0 15a7 7 0 1 0 0-14 7 7 0 0 0 0 14zm0 15a7 7 0 1 0 0-14 7 7 0 0 0 0 14zm0 15a7 7 0 1 0 0-14 7 7 0 0 0 0 14zm0 15a7 7 0 1 0 0-14 7 7 0 0 0 0 14zm20-15a7 7 0 1 0 0-14 7 7 0 0 0 0 14zm19-15a7 7 0 1 0 0-14 7 7 0 0 0 0 14zm17-15a7 7 0 1 0 0-14 7 7 0 0 0 0 14zm56-45a5 5 0 1 1 0-10 5 5 0 0 1 0 10zM99 68a5 5 0 1 1 0-10 5 5 0 0 1 0 10zM80 53a5 5 0 1 1 0-10 5 5 0 0 1 0 10zm19-1a4 4 0 1 1 0-8 4 4 0 0 1 0 8zm0-16a3 3 0 1 1 0-6 3 3 0 0 1 0 6zm0-15a2 2 0 1 1 0-4 2 2 0 0 1 0 4zm20 92a6 6 0 1 1 0-12 6 6 0 0 1 0 12zM99 99a6 6 0 1 1 0-12 6 6 0 0 1 0 12zM80 84a6 6 0 1 1 0-12 6 6 0 0 1 0 12zm39-59a6 6 0 1 1 0-12 6 6 0 0 1 0 12zm0 15a7 7 0 1 1 0-14 7 7 0 0 1 0 14zm0 15a7 7 0 1 1 0-14 7 7 0 0 1 0 14zm0 15a7 7 0 1 1 0-14 7 7 0 0 1 0 14zm0 15a7 7 0 1 1 0-14 7 7 0 0 1 0 14zm0 15a7 7 0 1 1 0-14 7 7 0 0 1 0 14zM99 85a7 7 0 1 1 0-14 7 7 0 0 1 0 14zM80 70a7 7 0 1 1 0-14 7 7 0 0 1 0 14z" fill-rule="evenodd"/></symbol></svg>