<svg width="190" height="158" viewBox="0 0 190 158" xmlns="http://www.w3.org/2000/svg"><title>etchnride-icon</title><g fill-rule="evenodd"><path d="M143.39 29.028l5.21-3.928-2.5-3.8c-5.2-7.8-11.6-13-18.5-16.2-6.8-3.2-14-4.3-20.7-4.3-17.3 0-32 7.2-34 8.2-8.6 3.8-14.3 9.9-17.5 16.4-3.3 6.6-4.2 13.5-4.2 19.5 0 4.8.6 9.1 1.2 12.3-19.6 3.7-35.9 4.3-44.7 4.3-2.3 0-4.1-.1-5.3-.1-1.2-.1-1.8-.1-1.8-.1L0 71.1c.1 0 2.8.1 7.7.1 9.72 0 27.91-.694 49.745-5.098-5.05 3.389-11.3 9.11-15.945 18.398-9.2 18.4-18.7 3.5-18.7 3.5s-5.4 15.5 14.6 15.8c0 0-1.6 7-7.9 8.9 0 0 21.596 11.745 43.216-2.283 4.841 18.479 17.16 29.959 28.884 36.683 14.1 8.1 27.5 9.8 27.8 9.8l2.4.3 15-25.1-2.15-.684.05-.216-1.498-.342L149.8 118l-6.5-6.4 1.049-5.733 1.751.333 1.1-11.6 11.6-1.6.4-2.8c.5-3.8.8-7.4.8-11-.075-24.235-11.084-42.466-16.61-50.172zm-5.991 4.306c-12.748 8.746-25.99 15.488-38.997 20.68L104.2 63.7l-8.9 19.8-2.1.2c-2.7.3-6.4.7-6.4.7l-3.7.4-.3-3.7c-.3-2.7-1.2-4.5-2.4-5.6-1.2-1.1-2.6-1.7-4.2-1.7-2.9 0-6.7 2-9.1 8-.7 1.8-.9 3.2-.9 4.4.1 3 1.6 4.7 3.8 6.2 2.2 1.5 4.8 2.1 5.2 2.2l2.8.5.2 2.8c1.6 21.5 12.9 33.8 24.8 41.4 10.1 6.4 20.5 9.1 25.1 10l7.8-12.9c-.1-.1-.3-.1-.4-.2l.645-.634L96.9 126.6l11.2-33.9 31.268 6.425L140.4 88.2l11.8-1.6c.3-2.5.4-4.9.4-7.2.08-22.063-10.202-39.105-15.201-46.066zm-.137 37.132c-1.196 3.318-3.9 5.434-6.662 5.434-3.7 0-7.3-3.8-7.3-9.2 0-5.4 3.6-9.2 7.3-9.2 2.761 0 5.466 2.116 6.662 5.434a4.2 4.2 0 1 0 0 7.532zm-27.399 36.745L112.3 99.9l27.439 5.647-.925 4.854-7.414 1.499-7.5-5.1-6.3 2.5-7.737-2.089zm-1.475 4.425L104.9 122.1l33.662 7.697L144.1 118.9l-4.048-4.048-9.652 1.948-7.1-4.8-5.4 2.2-9.512-2.564zM77.7 17.6c-.4.2-.5.3-.5.3H77l-.2.1c-6.7 3-10.4 7.1-12.7 11.7-2.3 4.7-3.2 10.1-3.1 15.1 0 3.9.5 7.6 1 10.3 23-5.3 49.3-14.9 73.1-32.1-3.6-4.2-7.5-7.1-11.6-9-5.3-2.4-11-3.4-16.6-3.4h-.1c-13.6 0-26.4 5.6-29.1 7zm41 49.1c0-7.3 5-13.7 11.9-13.8 6.9.1 11.9 6.5 11.9 13.8 0 7.3-5 13.7-11.9 13.8-6.9 0-11.9-6.4-11.9-13.8z"/><path d="M136 39.7l-2.5 9.5-22.9 9.8s4.8-14 25.4-19.3zM73.2 77.5s10.6 1.6 5.1 13.3l-5.1-3.5 3.1-2.7-3.1-7.1zm72.6 6.7l-11.7 2.2c-.1 0 5.3-10.1 11.7-2.2zm-41.5 4.9l-9 26.3-.9-17.6 9.9-8.7z" fill-opacity=".795"/></g></svg>