<svg width="230" height="47" viewBox="0 0 230 47" xmlns="http://www.w3.org/2000/svg"><title>shootnik-logo</title><path d="M6.794 40.643c1.483.802 3.126 1.203 4.93 1.203 2.064 0 3.868-.522 5.411-1.564 1.202-.821 1.804-1.683 1.804-2.585 0-1.323-.722-2.315-2.165-2.976-.882-.4-2.475-.802-4.78-1.203-3.627-.62-6.122-1.342-7.485-2.164-2.284-1.383-3.427-3.627-3.427-6.734 0-2.605 1.203-4.79 3.608-6.553 2.164-1.583 4.74-2.375 7.725-2.375 2.004 0 3.878.39 5.622 1.172 1.844.822 3.277 1.974 4.299 3.458l-3.938 2.705c-.501-.741-1.273-1.343-2.315-1.804-1.102-.5-2.325-.751-3.668-.751-1.964 0-3.597.48-4.9 1.443-1.082.801-1.623 1.703-1.623 2.705 0 1.323.722 2.315 2.164 2.976.862.401 2.445.802 4.75 1.203 3.648.641 6.153 1.373 7.516 2.194 2.264 1.363 3.396 3.598 3.396 6.704 0 2.585-1.302 4.77-3.908 6.553-2.364 1.584-5.06 2.375-8.086 2.375-2.605 0-5.01-.6-7.215-1.803C2.104 43.519.601 41.825 0 39.742l4.6-1.323c.22.801.951 1.543 2.194 2.224zM34.36 21.524c2.084-3.948 5.15-5.922 9.199-5.922 3.848 0 7.135 1.373 9.86 4.118 2.746 2.726 4.119 6.013 4.119 9.86v15.993h-4.81V29.58c0-2.525-.902-4.68-2.706-6.463-1.783-1.803-3.938-2.705-6.463-2.705s-4.69.902-6.493 2.705c-1.764 1.764-2.666 3.898-2.706 6.403v16.053h-4.78V0h4.78v21.524zm36.946 2.194c-2.085 2.065-3.127 4.56-3.127 7.486 0 2.946 1.042 5.45 3.127 7.515 2.064 2.084 4.569 3.127 7.515 3.127 2.926 0 5.421-1.043 7.485-3.127 2.085-2.064 3.127-4.57 3.127-7.515 0-2.926-1.042-5.421-3.127-7.486-2.064-2.084-4.559-3.126-7.485-3.126-2.946 0-5.451 1.042-7.515 3.126zm7.515-7.906c4.249 0 7.876 1.503 10.882 4.51 3.006 3.006 4.51 6.633 4.51 10.882 0 4.269-1.504 7.906-4.51 10.912-3.006 3.006-6.633 4.51-10.882 4.51-4.269 0-7.906-1.504-10.912-4.51-3.006-3.006-4.51-6.643-4.51-10.912 0-4.249 1.504-7.876 4.51-10.882 3.006-3.007 6.643-4.51 10.912-4.51zm27.807 7.906c-2.084 2.065-3.126 4.56-3.126 7.486 0 2.946 1.042 5.45 3.126 7.515 2.064 2.084 4.57 3.127 7.515 3.127 2.926 0 5.421-1.043 7.486-3.127 2.084-2.064 3.126-4.57 3.126-7.515 0-2.926-1.042-5.421-3.126-7.486-2.065-2.084-4.56-3.126-7.486-3.126-2.946 0-5.45 1.042-7.515 3.126zm7.515-7.906c4.249 0 7.876 1.503 10.882 4.51 3.007 3.006 4.51 6.633 4.51 10.882 0 4.269-1.503 7.906-4.51 10.912-3.006 3.006-6.633 4.51-10.882 4.51-4.268 0-7.906-1.504-10.912-4.51-3.006-3.006-4.51-6.643-4.51-10.912 0-4.249 1.504-7.876 4.51-10.882 3.006-3.007 6.644-4.51 10.912-4.51zm18.879.992h5.651V5.291l4.45-1.383v12.896h5.08v4.75h-5.08v24.02h-4.78v-24.02h-5.321v-4.75zm24.77 5.17c2.025-4.148 5.09-6.222 9.2-6.222 3.847 0 7.134 1.373 9.86 4.119 2.745 2.725 4.118 6.012 4.118 9.86v15.842h-4.81V29.731c0-2.525-.902-4.68-2.706-6.463-1.783-1.804-3.938-2.706-6.463-2.706s-4.69.902-6.493 2.706c-1.764 1.763-2.665 3.897-2.706 6.403v15.902h-4.78V16.804h4.78v5.17zM193.836.873c.581.581.872 1.282.872 2.104 0 .802-.29 1.493-.872 2.074a2.867 2.867 0 0 1-2.104.872c-.802 0-1.493-.29-2.074-.872-.582-.58-.872-1.272-.872-2.074 0-.822.29-1.523.872-2.104.58-.581 1.272-.872 2.074-.872.821 0 1.523.29 2.104.872zm.3 15.932v28.77h-4.78v-28.77h4.78zm35.413 0l-15.421 13.738L230 45.573h-6.914l-15.782-14.91v14.91h-4.78V0h4.78v30.182l15.03-13.378h7.215z" fill-rule="evenodd"/></svg>