<svg width="353" height="120" viewBox="0 0 353 120" xmlns="http://www.w3.org/2000/svg"><title>vimeo-logo</title><path d="M288.598 86.451a113.085 113.085 0 0 1-3.976 2.355c-12.521 7.18-25.214 10.812-38.12 10.812-9.573 0-16.454-3.205-20.556-9.573a23.57 23.57 0 0 1-.874-1.393l-.366.325c-7.906 6.837-15.855 10.256-23.761 10.256-7.692 0-11.41-4.23-11.154-12.735.128-3.761.855-8.334 2.222-13.633 1.368-5.3 2.094-9.445 2.222-12.393.129-4.488-1.239-6.753-4.102-6.753-3.077 0-6.752 3.676-11.026 10.983-4.487 7.693-6.923 15.129-7.308 22.351-.256 5.086.256 8.975 1.496 11.71-8.248.256-14.018-1.111-17.308-4.06-2.95-2.607-4.317-6.923-4.06-12.949a47.3 47.3 0 0 1 1.752-11.325c1.026-3.76 1.624-7.137 1.752-10.128.257-4.36-1.367-6.539-4.786-6.539-2.95 0-6.154 3.376-9.573 10.086-3.42 6.752-5.342 13.76-5.684 21.111-.257 6.624.17 11.24 1.282 13.847-8.12.256-13.89-1.453-17.265-5.129-1.576-1.719-2.672-3.918-3.295-6.62a69.772 69.772 0 0 1-2.09 1.92c-7.906 6.837-15.855 10.256-23.761 10.256-3.676 0-6.496-1.196-8.42-3.547-1.965-2.35-2.863-5.427-2.735-9.23.129-3.89 1.325-9.916 3.633-18.078 2.308-8.163 3.462-12.522 3.462-13.12 0-3.077-1.069-4.616-3.206-4.616-.682 0-2.498 1.095-5.447 3.286-2.24 6.725-7.153 14.955-14.724 24.706-10.727 13.975-19.83 20.941-27.266 20.941-4.615 0-8.504-4.23-11.667-12.735-2.136-7.778-4.23-15.599-6.367-23.377-2.35-8.504-4.915-12.735-7.607-12.735-.599 0-2.65 1.24-6.197 3.718L0 49.659a897.997 897.997 0 0 0 11.539-10.3c5.214-4.486 9.103-6.837 11.71-7.093 6.153-.599 9.914 3.59 11.324 12.607 1.539 9.701 2.607 15.727 3.206 18.12 1.752 8.034 3.718 12.052 5.855 12.052 1.666 0 4.145-2.607 7.436-7.821 3.29-5.214 5.085-9.188 5.299-11.924.47-4.487-1.282-6.752-5.3-6.752-1.88 0-3.846.428-5.854 1.282 3.889-12.692 11.282-18.89 22.223-18.547 7.306.192 11.118 4.468 11.497 12.827a991.375 991.375 0 0 0 5.298-4.836c5.085-4.487 8.846-6.837 11.368-7.094 3.889-.342 6.752.812 8.59 3.462 1.837 2.65 2.521 6.111 2.05 10.342-1.538 7.18-3.204 16.325-4.956 27.394-.129 5.085 1.709 7.607 5.512 7.607 1.667 0 4.616-1.752 8.847-5.257l.202-.165c.269-2.448.694-5.341 1.294-8.681.983-5.47 1.538-9.744 1.624-12.82.213-2.138-.3-3.163-1.582-3.163-.726 0-2.735 1.196-6.025 3.59l-4.274-4.787c.598-.47 4.316-3.889 11.154-10.3 4.957-4.615 8.334-6.965 10.086-7.094 3.077-.256 5.555 1.026 7.436 3.804 1.88 2.778 2.82 5.983 2.82 9.658 0 1.197-.128 2.308-.341 3.376a32.02 32.02 0 0 1 6.196-7.094c5.428-4.743 11.539-7.393 18.249-7.991 5.812-.47 9.914.897 12.393 4.06 2.009 2.606 2.949 6.325 2.82 11.154.813-.684 1.71-1.496 2.65-2.308 2.735-3.205 5.385-5.727 7.992-7.607 4.359-3.205 8.932-4.957 13.633-5.3 5.684-.47 9.744.898 12.222 4.06 2.137 2.607 3.077 6.283 2.82 11.112-.127 3.29-.897 8.077-2.392 14.402-1.496 6.282-2.223 9.915-2.223 10.855-.128 2.479.129 4.188.727 5.128.598.94 2.008 1.41 4.273 1.41 1.024 0 2.53-.66 4.52-1.98a32.949 32.949 0 0 1-.246-4.6c.128-9.574 4.36-18.676 12.778-27.31 9.231-9.444 20.086-14.187 32.608-14.187 11.581 0 17.735 4.7 18.419 14.145.47 6.026-2.82 12.18-9.915 18.548-7.564 6.966-17.094 11.367-28.547 13.248 2.136 2.949 5.299 4.402 9.572 4.402 8.505 0 17.779-2.18 27.822-6.496.446-.188.886-.376 1.32-.564a38.479 38.479 0 0 1-.167-2.129c-.598-10.128 3.077-19.487 10.984-27.949 8.504-9.445 19.188-14.146 32.094-14.146 8.248 0 14.53 2.778 18.804 8.334 4.018 5 5.855 11.539 5.513 19.573-.47 10.855-4.487 20.257-12.051 28.163-7.565 7.906-16.967 11.838-28.206 11.838-9.317 0-16.41-2.992-21.283-9.017a25.389 25.389 0 0 1-2.82-4.449zM112.225 8.931c-.128 2.95-1.581 5.77-4.445 8.463-3.205 3.077-6.966 4.572-11.325 4.572-6.752 0-10-2.948-9.743-8.803.128-3.077 1.923-5.983 5.384-8.804C95.601 1.54 99.446.13 103.72.13c2.48 0 4.53.982 6.197 2.905 1.667 1.923 2.436 3.89 2.308 5.898zM264.579 53.25c.128-3.162-1.197-4.744-3.889-4.744-3.547 0-7.137 2.436-10.812 7.308s-5.556 9.573-5.641 14.018c-.086 0-.086.769 0 2.307 5.77-2.094 10.812-5.342 15.043-9.7 3.419-3.761 5.17-6.796 5.3-9.189zm68.335 5.983c.128-3.205-.342-6.111-1.325-8.803-1.025-2.65-2.436-4.018-4.359-4.018-6.026 0-10.983 3.248-14.872 9.787-3.333 5.342-5.086 11.026-5.342 17.052-.128 2.948.427 5.555 1.581 7.82 1.282 2.607 3.12 3.89 5.513 3.89 5.3 0 9.872-3.12 13.633-9.403 3.248-5.213 4.957-10.64 5.171-16.325z" fill-rule="evenodd"/></svg>